<svg width="20" height="20" viewBox="0 0 20 20" fill="none" xmlns="http://www.w3.org/2000/svg">
<path d="M10.0004 17.6338C12.2766 17.6338 14.1218 15.7885 14.1218 13.5123C14.1218 11.2361 12.2766 9.39087 10.0004 9.39087C7.72414 9.39087 5.87891 11.2361 5.87891 13.5123C5.87891 15.7885 7.72414 17.6338 10.0004 17.6338Z" fill="url(#paint0_linear_1617_4769)"/>
<path d="M10 3C8.4572 3.00109 6.93493 3.35367 5.54876 4.03098C4.16258 4.70828 2.94897 5.6925 2 6.90892L4.70969 9.61101C5.29303 8.74376 6.08061 8.03321 7.00313 7.54193C7.92566 7.05065 8.95481 6.79368 10 6.79368C11.0452 6.79368 12.0743 7.05065 12.9969 7.54193C13.9194 8.03321 14.707 8.74376 15.2904 9.61101L18 6.90892C17.051 5.6925 15.8374 4.70828 14.4512 4.03098C13.0651 3.35367 11.5428 3.00109 10 3V3Z" fill="url(#paint1_linear_1617_4769)"/>
<defs>
<linearGradient id="paint0_linear_1617_4769" x1="12.0466" y1="6.50083" x2="2.69524" y2="9.29871" gradientUnits="userSpaceOnUse">
<stop stop-color="#FF6746"/>
<stop offset="1" stop-color="#FF0546"/>
</linearGradient>
<linearGradient id="paint1_linear_1617_4769" x1="13.9719" y1="0.682114" x2="0.998076" y2="10.0766" gradientUnits="userSpaceOnUse">
<stop stop-color="#FF6746"/>
<stop offset="1" stop-color="#FF0546"/>
</linearGradient>
</defs>
</svg>
