<svg width="21" height="21" viewBox="0 0 21 21" fill="none" xmlns="http://www.w3.org/2000/svg">
<path fill-rule="evenodd" clip-rule="evenodd" d="M0.360596 10.8982C0.360596 16.0882 4.41808 20.3482 9.6055 20.8482V13.7182C8.41393 13.2982 7.55107 12.1982 7.55107 10.8982C7.55107 9.59824 8.41393 8.49824 9.6055 8.07824V0.948242C4.41808 1.44824 0.360596 5.70824 0.360596 10.8982ZM20.8535 9.89824H13.5294C13.211 9.04824 12.533 8.38824 11.6599 8.07824V0.948242C16.5084 1.41824 20.3707 5.17824 20.8535 9.89824ZM18.2546 7.89827C17.4123 5.89827 15.7688 4.29827 13.7143 3.47827V6.90827C14.0944 7.18827 14.4437 7.52827 14.7313 7.89827H18.2546ZM7.55107 6.91827V3.47827C4.51053 4.65827 2.41502 7.54827 2.41502 10.8983C2.41502 14.2483 4.51053 17.1383 7.55107 18.3283V14.8883C6.2876 13.9583 5.49665 12.4883 5.49665 10.8983C5.49665 9.30827 6.2876 7.83827 7.55107 6.91827ZM11.6599 13.7182V20.8482C16.5084 20.3782 20.3707 16.6182 20.8535 11.8982H13.5294C13.211 12.7482 12.533 13.4082 11.6599 13.7182ZM14.7313 13.8982C14.4437 14.2782 14.0944 14.6082 13.7143 14.8882V18.3182C15.7688 17.4982 17.4123 15.8982 18.2546 13.8982H14.7313Z" fill="url(#paint0_linear)"/>
<defs>
<linearGradient id="paint0_linear" x1="15.6943" y1="-6.02889" x2="-7.43945" y2="1.0988" gradientUnits="userSpaceOnUse">
<stop stop-color="#FF6746"/>
<stop offset="1" stop-color="#FF0546"/>
</linearGradient>
</defs>
</svg>
