<svg width="118" height="119" viewBox="0 0 118 119" fill="none" xmlns="http://www.w3.org/2000/svg">
  <g clip-path="url(#clip0)">
    <path d="M116.776 59.8442C116.777 71.295 113.38 82.4891 107.015 92.0107C100.65 101.532 91.6028 108.954 81.0171 113.337C70.4315 117.72 58.783 118.867 47.5448 116.634C36.3066 114.401 25.9835 108.887 17.8809 100.791C9.77825 92.694 4.26011 82.3781 2.02428 71.1474C-0.211558 59.9167 0.935338 48.2756 5.31992 37.6963C9.70451 27.117 17.1299 18.0747 26.6569 11.7128C36.184 5.35096 47.3849 1.95532 58.8431 1.95532C74.2067 1.95532 88.9411 8.05412 99.8053 18.9102C110.67 29.7663 116.774 44.4906 116.776 59.8442Z" fill="url(#paint0_linear)"/>
    <path d="M58.8431 118.68C47.2026 118.68 35.8235 115.231 26.1448 108.768C16.4661 102.305 8.92242 93.1187 4.4678 82.3712C0.0131721 71.6237 -1.15236 59.7975 1.11859 48.388C3.38954 36.9786 8.99497 26.4983 17.226 18.2725C25.4571 10.0468 35.9441 4.44496 47.361 2.17548C58.7778 -0.0940087 70.6117 1.07077 81.3661 5.52252C92.1205 9.97428 101.312 17.5131 107.78 27.1855C114.247 36.858 117.699 48.2298 117.699 59.8627C117.681 75.4566 111.474 90.4066 100.44 101.433C89.4067 112.46 74.447 118.662 58.8431 118.68ZM58.8431 2.89623C47.5674 2.89623 36.545 6.23778 27.1697 12.4983C17.7944 18.7588 10.4874 27.6571 6.17266 38.0678C1.85793 48.4786 0.729309 59.9342 2.92953 70.986C5.12975 82.0378 10.56 92.1893 18.5335 100.157C26.507 108.124 36.6657 113.55 47.7249 115.748C58.784 117.945 70.2469 116.816 80.6639 112.503C91.0809 108.19 99.9842 100.887 106.248 91.5167C112.511 82.1468 115.854 71.1311 115.853 59.8627C115.84 44.7555 109.829 30.2706 99.1412 19.587C88.453 8.90345 73.9601 2.89407 58.8431 2.87779V2.89623Z" fill="#061C4C"/>
    <path style="mix-blend-mode:overlay" opacity="0.5" d="M95.5592 59.7767C95.5617 66.8509 93.4647 73.767 89.5336 79.6501C85.6025 85.5332 80.0138 90.119 73.4744 92.8276C66.9351 95.5362 59.7388 96.2459 52.7958 94.8668C45.8528 93.4877 39.475 90.0819 34.4691 85.0801C29.4632 80.0783 26.0541 73.7052 24.673 66.7669C23.2918 59.8287 24.0007 52.6369 26.7099 46.1013C29.4191 39.5657 34.007 33.9798 39.8932 30.0502C45.7794 26.1206 52.6996 24.0238 59.7784 24.025C69.2665 24.0267 78.3656 27.7937 85.0753 34.4979C91.785 41.2021 95.556 50.2947 95.5592 59.7767Z" fill="url(#paint1_linear)"/>
    <g style="mix-blend-mode:soft-light">
      <path d="M58.8 4.6734C74.0977 4.67986 88.7875 10.659 99.7366 21.3356C110.686 32.0122 117.027 46.5413 117.409 61.8244C117.409 61.314 117.483 60.8221 117.483 60.3178C117.325 44.8673 111.072 30.1034 100.084 19.2338C89.0949 8.36415 74.2582 2.26697 58.797 2.26697C43.3357 2.26697 28.499 8.36415 17.5104 19.2338C6.5218 30.1034 0.26909 44.8673 0.110779 60.3178C0.110779 60.8221 0.178464 61.314 0.19077 61.8244C0.571177 46.5408 6.91244 32.0108 17.8618 21.3338C28.8112 10.6569 43.5019 4.6783 58.8 4.6734Z" fill="#F3EFF9"/>
    </g>
    <g style="mix-blend-mode:multiply" opacity="0.4">
      <path d="M58.7692 114.788C43.4643 114.783 28.7675 108.799 17.8161 98.1145C6.86477 87.4298 0.526328 72.8904 0.15382 57.5998C0.141513 58.0672 0.0799811 58.5407 0.0799811 59.0326C0.00054805 66.7849 1.45985 74.4761 4.37348 81.6613C7.28712 88.8464 11.5973 95.3831 17.0547 100.893C22.5121 106.403 29.0084 110.777 36.168 113.762C43.3276 116.748 51.0084 118.285 58.7662 118.285C66.5239 118.285 74.2047 116.748 81.3643 113.762C88.5239 110.777 95.0203 106.403 100.478 100.893C105.935 95.3831 110.245 88.8464 113.159 81.6613C116.072 74.4761 117.532 66.7849 117.452 59.0326C117.452 58.5468 117.391 58.0733 117.379 57.5875C117.011 72.8797 110.675 87.4222 99.7243 98.1096C88.7736 108.797 74.0757 114.782 58.7692 114.788Z" fill="black"/>
    </g>
    <g style="mix-blend-mode:overlay" opacity="0.58">
      <path d="M58.9293 7.31141C48.2135 7.3102 37.738 10.4842 28.8271 16.4322C19.9163 22.3802 12.9703 30.8351 8.86731 40.7278C4.76432 50.6206 3.6886 61.507 5.77615 72.0107C7.86371 82.5143 13.0208 92.1636 20.5954 99.7385C28.17 107.313 37.822 112.474 48.331 114.567C58.84 116.66 69.7342 115.593 79.6361 111.499C89.5381 107.406 98.0031 100.47 103.961 91.5688C109.919 82.6678 113.102 72.2012 113.108 61.4923C113.117 54.3778 111.722 47.3313 109.003 40.7562C106.284 34.181 102.294 28.2063 97.2617 23.1738C92.2294 18.1414 86.2535 14.15 79.676 11.4282C73.0984 8.7063 66.0484 7.30736 58.9293 7.31141Z" fill="#F3EFF9"/>
    </g>
    <g style="mix-blend-mode:soft-light">
      <path d="M34.5933 10.1585L41.2634 21.1779C47.3295 18.2088 54.0358 16.7838 60.7859 17.0294C67.536 17.2751 74.1208 19.1839 79.9547 22.5861H80.2747L86.8648 11.7757C79.0083 7.08721 70.0852 4.47818 60.9388 4.19519C51.7925 3.91221 42.725 5.96463 34.5933 10.1585Z" fill="#F3EFF9"/>
    </g>
    <path d="M25.8435 60.779C25.8409 54.3439 27.577 48.0275 30.8684 42.4966C34.1598 36.9657 38.8845 32.4256 44.5436 29.3554C50.2027 26.2852 56.5863 24.7989 63.0205 25.0534C69.4547 25.308 75.7007 27.2939 81.0993 30.8015C77.2904 27.8305 72.9185 25.6617 68.2477 24.4259C63.5768 23.1902 58.7038 22.9131 53.9228 23.6115C49.1419 24.3099 44.5521 25.9692 40.4306 28.4893C36.3091 31.0095 32.7413 34.3381 29.9427 38.2743C27.1441 42.2105 25.1726 46.6726 24.1473 51.3913C23.122 56.1099 23.0642 60.9873 23.9773 65.729C24.8904 70.4706 26.7554 74.9782 29.4599 78.9796C32.1644 82.9809 35.6522 86.3931 39.7128 89.0101C35.3956 85.6769 31.9006 81.3989 29.4963 76.5048C27.0919 71.6108 25.8423 66.2311 25.8435 60.779Z" fill="white"/>
    <path style="mix-blend-mode:overlay" opacity="0.53" d="M59.2 23.2626C57.307 23.2763 55.4181 23.4408 53.5513 23.7545L29.9784 38.4266C25.6756 44.4866 23.3787 51.7405 23.4095 59.171C23.4404 66.6015 25.7977 73.8361 30.1507 79.8601L69.1312 24.6953C65.9051 23.7514 62.5615 23.2691 59.2 23.2626Z" fill="url(#paint2_linear)"/>
    <path style="mix-blend-mode:overlay" opacity="0.53" d="M59.2 94.7842C68.0792 94.7828 76.6377 91.4669 83.1975 85.4865L84.182 33.464C80.0386 29.4121 74.9699 26.4298 69.4143 24.7751L53.1144 94.2615C55.1245 94.6072 57.1603 94.7821 59.2 94.7842Z" fill="url(#paint3_linear)"/>
    <path style="mix-blend-mode:overlay" opacity="0.4" d="M59.2 23.2625C52.0244 23.2533 45.0123 25.4025 39.0758 29.4306C33.1393 33.4587 28.5534 39.1791 25.9147 45.8475C23.276 52.516 22.7067 59.8237 24.2809 66.8199C25.8551 73.8161 29.4998 80.1769 34.741 85.0746C36.491 74.4074 41.0891 64.4098 48.0504 56.1363C57.6678 44.8647 75.6167 39.9146 87.9231 37.7624C84.6061 33.2665 80.2787 29.6121 75.2897 27.0935C70.3006 24.575 64.7894 23.2627 59.2 23.2625Z" fill="url(#paint4_linear)"/>
    <g style="mix-blend-mode:multiply" opacity="0.25">
      <path d="M86.0895 104.961L79.7332 93.8188C73.407 97.5981 66.18 99.6071 58.8096 99.6352C51.4393 99.6633 44.1971 97.7096 37.8422 93.9787L31.449 105.097C39.7405 109.948 49.1798 112.493 58.7877 112.47C68.3956 112.446 77.8222 109.853 86.0895 104.961Z" fill="black"/>
    </g>
    <g style="mix-blend-mode:multiply" opacity="0.15">
      <path d="M112.948 58.3193C112.948 58.0611 112.917 57.8089 112.911 57.5507L100.07 57.483C100.07 57.7659 100.106 58.0365 100.106 58.3193C100.106 65.495 98.2329 72.5464 94.6719 78.7774C91.1109 85.0084 85.9852 90.2035 79.8009 93.8496L86.1449 104.98C94.2963 100.214 101.059 93.3996 105.76 85.2144C110.462 77.0292 112.94 67.7574 112.948 58.3193Z" fill="black"/>
    </g>
    <g style="mix-blend-mode:multiply" opacity="0.1">
      <path d="M37.9714 93.9848C31.7227 90.3572 26.5363 85.1538 22.9309 78.895C19.3254 72.6362 17.4271 65.5411 17.4258 58.3193C17.4258 58.0671 17.4566 57.8273 17.4628 57.5752H4.62103C4.62103 57.8212 4.58411 58.0548 4.58411 58.3008C4.58228 67.78 7.07413 77.0931 11.8098 85.3064C16.5455 93.5197 23.3585 100.344 31.5659 105.096L37.9714 93.9848Z" fill="black"/>
    </g>
    <path d="M46.2352 74.252C42.8961 71.1405 41.2265 66.1637 41.2265 59.3216C41.2265 46.2566 47.5848 39.724 60.3014 39.724C63.2105 39.6969 66.1094 40.0715 68.9159 40.837C71.0052 41.3378 73.0014 42.1681 74.8291 43.2967V55.4784H63.1381V51.9795C63.2204 50.9986 62.9231 50.0236 62.3074 49.2553C61.6065 48.6861 60.7308 48.3754 59.8276 48.3754C58.9245 48.3754 58.0488 48.6861 57.3479 49.2553C56.7322 50.0236 56.4348 50.9986 56.5172 51.9795V66.6638C56.4348 67.6447 56.7322 68.6197 57.3479 69.3879C58.0507 69.9529 58.9256 70.2609 59.8276 70.2609C60.7296 70.2609 61.6045 69.9529 62.3074 69.3879C62.9231 68.6197 63.2204 67.6447 63.1381 66.6638V62.7222H74.8291V75.3219C72.9961 76.4403 71.0016 77.2699 68.9159 77.7816C66.1512 78.5472 63.2932 78.9239 60.4245 78.9008C54.2918 78.9131 49.562 77.3635 46.2352 74.252Z" fill="white"/>
    <path d="M58.9354 105.601H58.3262L58.3201 105.595H58.3262L58.9354 105.601Z" fill="white"/>
    <path d="M37.676 100.595L37.1284 100.319C37.0963 100.307 37.067 100.289 37.0424 100.265C37.0179 100.242 36.9986 100.213 36.986 100.182C36.9734 100.15 36.9676 100.116 36.9692 100.082C36.9707 100.048 36.9795 100.015 36.9949 99.9842C37.0103 99.9539 37.032 99.9271 37.0586 99.9058C37.0852 99.8844 37.116 99.869 37.149 99.8605C37.182 99.852 37.2164 99.8506 37.25 99.8565C37.2836 99.8623 37.3156 99.8752 37.3438 99.8943L37.8729 100.196C37.8988 100.209 37.9217 100.228 37.9403 100.251C37.9589 100.273 37.9729 100.299 37.9815 100.327C37.9901 100.355 37.9931 100.385 37.9903 100.414C37.9875 100.443 37.979 100.471 37.9652 100.497C37.9515 100.523 37.9328 100.546 37.9102 100.564C37.8876 100.583 37.8616 100.597 37.8336 100.605C37.777 100.623 37.7159 100.617 37.6637 100.589L37.676 100.595Z" fill="white"/>
    <path d="M20.7486 86.452L20.3794 85.9539C20.2342 85.7615 20.1714 85.5193 20.2048 85.2806C20.2383 85.0419 20.3653 84.8262 20.5579 84.6811C20.7504 84.5359 20.9928 84.4732 21.2317 84.5066C21.4705 84.54 21.6863 84.6669 21.8316 84.8594L21.8685 84.9147L22.1885 85.4251C22.3071 85.6176 22.3469 85.8484 22.2997 86.0696C22.2526 86.2907 22.122 86.4851 21.9351 86.6126C21.7482 86.74 21.5193 86.7905 21.2961 86.7538C21.0729 86.717 20.8724 86.5957 20.7363 86.4151L20.7486 86.452Z" fill="white"/>
    <path d="M11.888 65.7968L11.7834 65.1819C11.7018 64.6828 11.8219 64.1718 12.1173 63.7613C12.4127 63.3507 12.8592 63.0743 13.3586 62.9927C13.858 62.9112 14.3693 63.0312 14.7801 63.3265C15.1909 63.6217 15.4676 64.0679 15.5492 64.5669C15.5552 64.6262 15.5552 64.686 15.5492 64.7453L15.5861 65.3602C15.6407 65.8535 15.4971 66.3484 15.1867 66.7358C14.8763 67.1233 14.4245 67.3717 13.9309 67.4263C13.4372 67.481 12.9421 67.3374 12.5543 67.0272C12.1666 66.717 11.9181 66.2655 11.8634 65.7722L11.888 65.7968Z" fill="white"/>
    <path d="M13.617 42.9278L13.8263 42.3129C14.0808 41.5667 14.6216 40.9522 15.3295 40.6045C16.0375 40.2568 16.8546 40.2044 17.6012 40.4589C18.3479 40.7133 18.9628 41.2537 19.3107 41.9612C19.6586 42.6687 19.711 43.4853 19.4564 44.2314C19.4321 44.3117 19.4012 44.3898 19.3641 44.4651L19.1365 44.9878V45.037C18.8241 45.7223 18.2609 46.2621 17.5626 46.5453C16.8642 46.8285 16.0839 46.8337 15.3819 46.5597C14.68 46.2857 14.1097 45.7534 13.7883 45.0721C13.4669 44.3909 13.4188 43.6126 13.654 42.897L13.617 42.9278Z" fill="white"/>
    <path d="M26.2434 23.2256L26.7295 22.7706C27.4757 22.1061 28.453 21.7607 29.4513 21.8087C30.4496 21.8568 31.3892 22.2944 32.068 23.0276C32.7467 23.7607 33.1105 24.7308 33.0811 25.7291C33.0517 26.7275 32.6313 27.6745 31.9105 28.3664L31.7383 28.514L31.3075 28.8706L31.2522 28.9137C30.4919 29.5567 29.5089 29.8748 28.5158 29.7993C27.5226 29.7237 26.5992 29.2605 25.9451 28.5099C25.291 27.7593 24.9588 26.7815 25.0204 25.788C25.082 24.7946 25.5324 23.8653 26.2742 23.2011L26.2434 23.2256Z" fill="white"/>
    <path d="M47.0413 11.8127L47.6935 11.6836C48.2391 11.5349 48.8088 11.4964 49.3694 11.5704C49.93 11.6445 50.4702 11.8295 50.9584 12.1148C51.4465 12.4 51.8729 12.7797 52.2124 13.2316C52.5519 13.6835 52.7978 14.1985 52.9358 14.7466C53.0737 15.2946 53.1008 15.8647 53.0156 16.4233C52.9304 16.982 52.7345 17.518 52.4394 18.0001C52.1444 18.4822 51.756 18.9006 51.2972 19.2309C50.8383 19.5611 50.3182 19.7966 49.7671 19.9235H49.6687H49.6072L49.0657 20.0404H48.998C47.919 20.2565 46.7982 20.0455 45.8719 19.4519C44.9455 18.8584 44.286 17.9285 44.0323 16.8585C43.7785 15.7884 43.9505 14.6617 44.5118 13.7158C45.0731 12.7699 45.98 12.0788 47.0413 11.7881V11.8127Z" fill="white"/>
    <path d="M70.8665 11.8065L71.4818 11.9787C72.5744 12.2527 73.5133 12.9492 74.092 13.915C74.6707 14.8808 74.8418 16.0368 74.5676 17.1287C74.2934 18.2206 73.5965 19.1589 72.6301 19.7372C71.6636 20.3155 70.5069 20.4865 69.4143 20.2125H69.3405L68.799 20.0834H68.7559C67.6544 19.8176 66.7036 19.1253 66.1128 18.1589C65.522 17.1925 65.3395 16.0312 65.6055 14.9303C65.8715 13.8295 66.5642 12.8793 67.5312 12.2889C68.4982 11.6984 69.6603 11.5161 70.7619 11.7819L70.8665 11.8065Z" fill="white"/>
    <path d="M91.6827 23.2195L92.1627 23.6746C92.8715 24.3543 93.2892 25.2821 93.3278 26.2632C93.3664 27.2442 93.023 28.2019 92.3697 28.9352C91.7164 29.6685 90.8042 30.1201 89.8247 30.1952C88.8451 30.2703 87.8746 29.9631 87.117 29.338L87.0555 29.2827L86.6248 28.926C85.8496 28.2737 85.3655 27.3403 85.279 26.3312C85.2361 25.8316 85.2922 25.3284 85.4439 24.8504C85.5956 24.3725 85.8401 23.929 86.1633 23.5454C86.4865 23.1619 86.8822 22.8457 87.3277 22.6149C87.7732 22.3841 88.2598 22.2433 88.7597 22.2005C89.7695 22.114 90.7722 22.4319 91.5474 23.0842L91.6827 23.2195Z" fill="white"/>
    <path d="M104.291 42.9339L104.488 43.5488C104.731 44.2705 104.685 45.0586 104.359 45.7469C104.032 46.4351 103.451 46.97 102.738 47.2386C102.025 47.5073 101.235 47.4888 100.535 47.1871C99.8356 46.8853 99.2804 46.3239 98.9866 45.6211L98.9559 45.5596L98.7343 45.0308C98.4588 44.3114 98.4731 43.5133 98.7742 42.8042C99.0752 42.0951 99.6397 41.5303 100.349 41.2285C101.058 40.9268 101.857 40.9115 102.577 41.1859C103.297 41.4604 103.883 42.0032 104.211 42.7002L104.291 42.9339Z" fill="white"/>
    <path d="M106.007 65.8397L105.897 66.4547C105.836 66.9439 105.584 67.3892 105.195 67.6925C104.806 67.9958 104.313 68.1323 103.823 68.0719C103.333 68.0116 102.888 67.7593 102.584 67.3707C102.281 66.9821 102.144 66.4889 102.205 65.9996V65.9566L102.248 65.3417C102.298 64.8489 102.54 64.3953 102.92 64.0776C103.3 63.7599 103.79 63.6032 104.284 63.6409C104.778 63.6786 105.238 63.9077 105.566 64.2794C105.894 64.651 106.063 65.1359 106.038 65.6307C106.026 65.7168 106.02 65.7967 106.007 65.8397Z" fill="white"/>
    <path d="M97.1222 86.4766L96.7469 86.9685C96.6102 87.1431 96.4118 87.2588 96.1924 87.2917C95.9731 87.3246 95.7494 87.2723 95.5674 87.1456C95.3855 87.0188 95.259 86.8272 95.214 86.6102C95.169 86.3931 95.2089 86.1671 95.3255 85.9785L95.6516 85.4743C95.7805 85.2753 95.9832 85.1357 96.2152 85.0861C96.4471 85.0365 96.6893 85.081 96.8884 85.2098C97.0875 85.3387 97.2272 85.5413 97.2768 85.7731C97.3264 86.0049 97.2819 86.2469 97.153 86.4458L97.1222 86.4766Z" fill="white"/>
    <path d="M80.1824 100.608L79.6348 100.878C79.5848 100.899 79.5289 100.9 79.4781 100.882C79.4272 100.863 79.3852 100.826 79.3604 100.778C79.3356 100.73 79.3298 100.675 79.3441 100.623C79.3585 100.57 79.392 100.526 79.4379 100.497L79.9917 100.233C80.0176 100.213 80.0474 100.2 80.0789 100.193C80.1105 100.186 80.1431 100.186 80.1747 100.193C80.2062 100.2 80.236 100.213 80.262 100.232C80.288 100.251 80.3096 100.276 80.3254 100.304C80.3412 100.332 80.3509 100.363 80.3538 100.395C80.3566 100.427 80.3526 100.46 80.342 100.49C80.3314 100.521 80.3144 100.549 80.2922 100.572C80.27 100.595 80.2431 100.614 80.2132 100.626L80.1824 100.608Z" fill="white"/>
  </g>
  <defs>
    <linearGradient id="paint0_linear" x1="36.5931" y1="6.86856" x2="84.3941" y2="120.83" gradientUnits="userSpaceOnUse">
      <stop offset="0.02" stop-color="#00ABFF"/>
      <stop offset="1" stop-color="#002F9C"/>
    </linearGradient>
    <linearGradient id="paint1_linear" x1="23.9913" y1="59.7828" x2="95.5593" y2="59.7828" gradientUnits="userSpaceOnUse">
      <stop stop-color="white"/>
      <stop offset="1" stop-color="white"/>
    </linearGradient>
    <linearGradient id="paint2_linear" x1="3801.42" y1="6844.4" x2="3430.11" y2="4811.84" gradientUnits="userSpaceOnUse">
      <stop stop-color="white"/>
      <stop offset="1" stop-color="white"/>
    </linearGradient>
    <linearGradient id="paint3_linear" x1="3713.49" y1="10235.6" x2="2695.99" y2="7175.36" gradientUnits="userSpaceOnUse">
      <stop stop-color="white"/>
      <stop offset="1" stop-color="white"/>
    </linearGradient>
    <linearGradient id="paint4_linear" x1="2478.13" y1="5468.29" x2="9241.68" y2="5468.29" gradientUnits="userSpaceOnUse">
      <stop stop-color="white"/>
      <stop offset="1" stop-color="white"/>
    </linearGradient>
    <clipPath id="clip0">
      <rect width="118" height="119" fill="white"/>
    </clipPath>
  </defs>
</svg>
