<svg width="26" height="26" viewBox="0 0 26 26" fill="none" xmlns="http://www.w3.org/2000/svg">
<path fill-rule="evenodd" clip-rule="evenodd" d="M6.79306 12.9889C9.99248 12.9889 12.5861 10.5289 12.5861 7.49445C12.5861 4.45995 9.99248 2 6.79306 2C3.59364 2 1 4.45995 1 7.49445C1 10.5289 3.59364 12.9889 6.79306 12.9889ZM6.79306 24.7628C9.99248 24.7628 12.5861 22.3029 12.5861 19.2684C12.5861 16.2339 9.99248 13.774 6.79306 13.774C3.59364 13.774 1 16.2339 1 19.2684C1 22.3029 3.59364 24.7628 6.79306 24.7628ZM25 7.49445C25 10.5289 22.4063 12.9889 19.2069 12.9889C16.0075 12.9889 13.4138 10.5289 13.4138 7.49445C13.4138 4.45995 16.0075 2 19.2069 2C22.4063 2 25 4.45995 25 7.49445ZM19.2069 24.7628C22.4063 24.7628 25 22.3029 25 19.2684C25 16.2339 22.4063 13.774 19.2069 13.774C16.0075 13.774 13.4138 16.2339 13.4138 19.2684C13.4138 22.3029 16.0075 24.7628 19.2069 24.7628Z" fill="url(#paint0_linear_1617_4462)"/>
<defs>
<linearGradient id="paint0_linear_1617_4462" x1="25" y1="13.774" x2="14.0264" y2="25.3439" gradientUnits="userSpaceOnUse">
<stop stop-color="#FFAD0E"/>
<stop offset="1" stop-color="#FF6B6B"/>
</linearGradient>
</defs>
</svg>
