<svg width="20" height="20" viewBox="0 0 20 20" fill="none" xmlns="http://www.w3.org/2000/svg">
<path d="M16.7791 11.2913L11.7987 2.74764C11.6649 2.52 11.474 2.33127 11.2448 2.20013C11.0157 2.06899 10.7562 2 10.4922 2C10.2282 2 9.96866 2.06899 9.7395 2.20013C9.51033 2.33127 9.31941 2.52 9.18564 2.74764L4.20531 11.2913C4.05981 11.5416 3.98903 11.8283 4.00138 12.1175C4.01373 12.4068 4.1087 12.6864 4.27501 12.9234C4.44132 13.1604 4.67204 13.3448 4.93986 13.4547C5.20768 13.5647 5.50139 13.5956 5.78624 13.5439L7.30983 12.5527C8.25781 11.9392 9.36297 11.6127 10.4922 11.6127C11.6214 11.6127 12.7266 11.9392 13.6745 12.5527L15.1981 13.5439C15.483 13.5956 15.7767 13.5647 16.0445 13.4547C16.3123 13.3448 16.5431 13.1604 16.7094 12.9234C16.8757 12.6864 16.9706 12.4068 16.983 12.1175C16.9953 11.8283 16.9246 11.5416 16.7791 11.2913V11.2913Z" fill="#CFD7DE"/>
<path d="M16.4269 15.1003H4.55762V18.0001H16.4269V15.1003Z" fill="#CFD7DE"/>
</svg>
