<svg width="357" height="100" viewBox="0 0 357 100" fill="none" xmlns="http://www.w3.org/2000/svg">
<g clip-path="url(#clip0_1_2)">
<path d="M87.81 82.57C95.36 73.82 99.93 62.43 99.93 49.96C99.93 22.37 77.56 0 49.97 0C22.38 0 0 22.37 0 49.97C0 62.64 4.73 74.2 12.5 83.01L87.81 82.57Z" fill="url(#paint0_linear_1_2)"/>
<path d="M49.97 99.93C65.1 99.93 78.65 93.19 87.81 82.57L71.77 66.96C66.71 73.45 58.83 77.63 49.97 77.63C41.11 77.63 33.59 73.65 28.52 67.42L12.51 83C21.67 93.37 35.05 99.92 49.98 99.92L49.97 99.93Z" fill="#1D101B"/>
<path d="M49.97 59.46C46.41 59.46 43.31 57.5 41.69 54.6L28.52 67.42C33.59 73.65 41.32 77.63 49.97 77.63C58.62 77.63 66.71 73.44 71.77 66.96L58.52 54.07C56.99 57.26 53.74 59.47 49.96 59.47L49.97 59.46Z" fill="#0098FF"/>
<path d="M49.97 59.46C53.74 59.46 57 57.25 58.53 54.06L50.39 46.13L41.69 54.59C43.32 57.49 46.41 59.45 49.97 59.45V59.46Z" fill="white"/>
<path d="M128.77 46.78V58.02H119.83V20.77H134.73C144.42 20.77 149.2 25.18 149.2 33.75C149.2 41.02 144.11 46.79 135.04 46.79H128.77V46.78ZM128.77 28.71V38.83H134.05C137.9 38.83 139.89 37.22 139.89 33.74C139.89 30.26 138.03 28.71 133.93 28.71H128.78H128.77Z" fill="#F7F7F7"/>
<path d="M151.49 43.93C151.49 33.75 157.14 27.78 166.7 27.78C175.77 27.78 180.17 33.55 180.17 41.57C180.17 42.87 180.17 43.87 180.05 45.48H159.93C160.49 49.7 162.72 51.57 166.7 51.57C170.68 51.57 171.92 49.65 172.6 47.35L179.93 49.4C178.5 54.74 174.65 58.84 166.58 58.84C157.7 58.84 151.49 53.75 151.49 43.94V43.93ZM160 40.7H172.42C172.17 36.79 170.25 34.8 166.46 34.8C162.67 34.8 160.56 36.54 160 40.7Z" fill="#F7F7F7"/>
<path d="M182.85 43.93C182.85 33.75 188.5 27.78 198.06 27.78C207.13 27.78 211.53 33.55 211.53 41.57C211.53 42.87 211.53 43.87 211.41 45.48H191.29C191.85 49.7 194.08 51.57 198.06 51.57C202.04 51.57 203.28 49.65 203.96 47.35L211.29 49.4C209.86 54.74 206.01 58.84 197.94 58.84C189.06 58.84 182.85 53.75 182.85 43.94V43.93ZM191.36 40.7H203.78C203.53 36.79 201.61 34.8 197.82 34.8C194.03 34.8 191.92 36.54 191.36 40.7Z" fill="#F7F7F7"/>
<path d="M223.83 40.08H224.33L233.52 28.59H243.33V28.71L231.04 43.05L243.89 57.89V58.01H233.89L224.2 46.21H223.83V58.01H215.32V19.96H223.83V40.08Z" fill="#F7F7F7"/>
<path d="M271.52 43.31C269.84 39.96 267.17 34 265.31 29.52H265.06C265.25 34.3 265.37 40.08 265.37 43.74V58.02H256.86V20.77H270.34L276.43 33.25C278.42 37.47 280.78 42.88 282.39 47.04H282.64C282.52 42.69 282.45 38.47 282.45 35.12V20.78H290.96V58.02H278.91L271.52 43.3V43.31Z" fill="#F7F7F7"/>
<path d="M305.23 45.79V58.02H296.29V20.77H323.24V29.22H305.23V37.35H321.69V45.8H305.23V45.79Z" fill="#F7F7F7"/>
<path d="M326.22 20.77H356.59V29.22H345.91V58.03H336.97V29.21H326.23V20.76L326.22 20.77Z" fill="#F7F7F7"/>
<path d="M122.72 75.71V78.87H120.14V68.11H124.62C127.47 68.11 128.83 69.42 128.83 71.95C128.83 74.05 127.36 75.72 124.71 75.72H122.72V75.71ZM122.72 70.29V73.61H124.42C125.75 73.61 126.28 73.07 126.28 71.94C126.28 70.81 125.78 70.29 124.38 70.29H122.71H122.72Z" fill="#F7F7F7"/>
<path d="M129.69 74.61C129.69 71.78 131.38 70.13 134.08 70.13C136.78 70.13 138.44 71.78 138.44 74.61C138.44 77.44 136.79 79.11 134.08 79.11C131.37 79.11 129.69 77.41 129.69 74.61ZM132.13 74.59C132.13 76.13 132.69 77.03 134.07 77.03C135.45 77.03 136.01 76.13 136.01 74.59C136.01 73.05 135.42 72.17 134.07 72.17C132.72 72.17 132.13 73.05 132.13 74.59Z" fill="#F7F7F7"/>
<path d="M147.87 73.72C148.1 74.78 148.3 75.85 148.48 77H148.78C148.98 75.91 149.21 74.87 149.44 73.7L150.09 70.37H152.49L150.14 78.87H146.95L146.23 75.21C146.05 74.24 145.89 73.24 145.76 72.22H145.46C145.33 73.22 145.16 74.26 144.99 75.21L144.33 78.87H141.23L138.86 70.37H141.37L142.12 73.7C142.39 74.87 142.62 75.89 142.8 77H143.12C143.3 75.87 143.5 74.78 143.71 73.72L144.41 70.37H147.15L147.85 73.72H147.87Z" fill="#F7F7F7"/>
<path d="M152.94 74.79C152.94 71.85 154.54 70.13 157.3 70.13C159.92 70.13 161.15 71.67 161.15 74.02C161.15 74.38 161.13 74.72 161.1 75.17H155.34C155.48 76.53 156.11 77.14 157.28 77.14C158.45 77.14 158.79 76.6 159 75.96L161.04 76.52C160.66 77.99 159.68 79.1 157.26 79.1C154.7 79.1 152.94 77.68 152.94 74.8V74.79ZM155.36 73.93H158.91C158.87 72.6 158.32 71.96 157.22 71.96C156.12 71.96 155.48 72.53 155.36 73.93Z" fill="#F7F7F7"/>
<path d="M162.67 78.86V70.36H164.98V73.12H165.18C165.72 70.75 166.43 70.27 167.55 70.27H167.8V73.07H167.3C165.6 73.07 165.11 73.57 165.11 75.08V78.86H162.67Z" fill="#F7F7F7"/>
<path d="M168.73 74.79C168.73 71.85 170.33 70.13 173.09 70.13C175.71 70.13 176.94 71.67 176.94 74.02C176.94 74.38 176.92 74.72 176.89 75.17H171.13C171.27 76.53 171.9 77.14 173.07 77.14C174.24 77.14 174.58 76.6 174.79 75.96L176.83 76.52C176.45 77.99 175.47 79.1 173.05 79.1C170.49 79.1 168.73 77.68 168.73 74.8V74.79ZM171.15 73.93H174.7C174.66 72.6 174.11 71.96 173.01 71.96C171.91 71.96 171.27 72.53 171.15 73.93Z" fill="#F7F7F7"/>
<path d="M183.88 76.64H183.74C183.31 78.13 182.38 79.11 180.96 79.11C179.13 79.11 178.06 77.55 178.06 74.68C178.06 71.81 179.14 70.13 181 70.13C182.36 70.13 183.28 71.03 183.73 72.51H183.89V67.35H186.33V78.86H183.89V76.64H183.88ZM183.88 75.03V74.37C183.88 73.13 183.22 72.34 182.14 72.34C180.97 72.34 180.44 73.09 180.44 74.69C180.44 76.29 180.96 76.97 182.16 76.97C183.18 76.97 183.88 76.22 183.88 75.03Z" fill="#F7F7F7"/>
<path d="M194.11 72.52H194.27C194.72 71.03 195.65 70.14 197.01 70.14C198.87 70.14 199.93 71.72 199.93 74.64C199.93 77.56 198.84 79.12 197.01 79.12C195.59 79.12 194.68 78.13 194.25 76.65H194.11V78.87H191.67V67.36H194.11V72.52ZM197.53 74.64C197.53 73.08 197.01 72.35 195.84 72.35C194.76 72.35 194.1 73.12 194.1 74.34V75C194.1 76.18 194.78 76.97 195.82 76.97C197 76.97 197.52 76.2 197.52 74.64H197.53Z" fill="#F7F7F7"/>
<path d="M200.54 81.75L200.9 79.69C201.26 79.76 201.63 79.81 201.99 79.81C202.85 79.81 203.3 79.65 203.69 78.75L200.5 70.36H203.17L204.01 73.48C204.26 74.43 204.57 75.52 204.83 76.56H205.13C205.4 75.5 205.69 74.44 205.9 73.53L206.69 70.36H209.31L205.96 78.89C205.14 80.97 204.06 81.87 201.93 81.87C201.34 81.87 200.98 81.82 200.53 81.75H200.54Z" fill="#F7F7F7"/>
<path d="M220.28 76.48H216.12L215.39 78.86H212.72L216.48 68.1H220.03L223.78 78.86H221.02L220.29 76.48H220.28ZM216.71 74.6H219.69L219.28 73.27C218.97 72.3 218.69 71.3 218.44 70.33H218.01C217.74 71.3 217.44 72.3 217.13 73.27L216.72 74.6H216.71Z" fill="#F7F7F7"/>
<path d="M225.51 78.86L222.62 70.36H225.27L226.17 73.69C226.44 74.73 226.73 75.72 226.98 76.7H227.34C227.59 75.71 227.88 74.71 228.16 73.69L229.06 70.36H231.64L228.77 78.86H225.51Z" fill="#F7F7F7"/>
<path d="M237.17 76.84H236.95C236.52 78.18 235.62 79.05 234.17 79.05C232.72 79.05 231.68 78.31 231.68 76.65C231.68 75.13 232.58 74.07 234.82 74.07H237.04V73.48C237.04 72.6 236.66 72.1 235.73 72.1C234.92 72.1 234.46 72.49 234.3 73.32L232.01 72.8C232.3 71.26 233.48 70.16 235.83 70.16C238.41 70.16 239.47 71.34 239.47 73.48V78.88H237.18V76.85L237.17 76.84ZM237.04 75.6V75.26H235.28C234.49 75.26 233.99 75.62 233.99 76.21C233.99 76.75 234.29 77.18 235.23 77.18C236.34 77.18 237.04 76.52 237.04 75.6Z" fill="#F7F7F7"/>
<path d="M243.82 78.86H241.38V67.35H243.82V78.86Z" fill="#F7F7F7"/>
<path d="M250.77 76.84H250.55C250.12 78.18 249.22 79.05 247.77 79.05C246.32 79.05 245.28 78.31 245.28 76.65C245.28 75.13 246.18 74.07 248.42 74.07H250.64V73.48C250.64 72.6 250.26 72.1 249.33 72.1C248.52 72.1 248.06 72.49 247.9 73.32L245.61 72.8C245.9 71.26 247.08 70.16 249.43 70.16C252.01 70.16 253.07 71.34 253.07 73.48V78.88H250.78V76.85L250.77 76.84ZM250.64 75.6V75.26H248.88C248.09 75.26 247.59 75.62 247.59 76.21C247.59 76.75 247.89 77.18 248.83 77.18C249.94 77.18 250.64 76.52 250.64 75.6Z" fill="#F7F7F7"/>
<path d="M260.4 76.6H260.22C259.74 78.25 258.7 79.11 257.35 79.11C255.74 79.11 254.91 77.96 254.91 76.12V70.37H257.35V75.44C257.35 76.32 257.74 76.91 258.64 76.91C259.68 76.91 260.33 76.17 260.33 75.1V70.37H262.79V78.87H260.41V76.61L260.4 76.6Z" fill="#F7F7F7"/>
<path d="M267.12 78.86H264.68V70.36H267.06V72.64H267.22C267.72 70.99 268.76 70.13 270.09 70.13C271.72 70.13 272.55 71.26 272.55 73.11V78.86H270.11V73.79C270.11 72.93 269.72 72.34 268.82 72.34C267.78 72.34 267.12 73.08 267.12 74.13V78.86Z" fill="#F7F7F7"/>
<path d="M278.28 72.26C277.15 72.26 276.45 72.98 276.45 74.59C276.45 76.1 277.06 76.97 278.31 76.97C279.4 76.97 279.82 76.24 280 75.36L282.24 75.9C281.95 77.87 280.75 79.11 278.33 79.11C275.64 79.11 273.96 77.62 273.96 74.72C273.96 71.82 275.61 70.13 278.32 70.13C280.85 70.13 281.92 71.33 282.23 73.39L279.97 73.82C279.75 72.91 279.36 72.26 278.28 72.26Z" fill="#F7F7F7"/>
<path d="M286.22 78.86H283.78V67.35H286.22V72.64H286.36C286.86 71.01 287.85 70.13 289.23 70.13C290.84 70.13 291.65 71.26 291.65 73.11V78.86H289.21V73.79C289.21 72.93 288.8 72.34 287.92 72.34C286.88 72.34 286.22 73.08 286.22 74.13V78.86Z" fill="#F7F7F7"/>
</g>
<defs>
<linearGradient id="paint0_linear_1_2" x1="49.97" y1="78.48" x2="49.97" y2="1.06" gradientUnits="userSpaceOnUse">
<stop stop-color="#FFD400"/>
<stop offset="0.22" stop-color="#FFC200"/>
<stop offset="0.64" stop-color="#FF9500"/>
<stop offset="0.94" stop-color="#FF7300"/>
</linearGradient>
<clipPath id="clip0_1_2">
<rect width="356.58" height="99.93" fill="white"/>
</clipPath>
</defs>
</svg>
