<svg width="20" height="20" viewBox="0 0 20 20" fill="none" xmlns="http://www.w3.org/2000/svg">
<circle cx="10" cy="10" r="8.5" stroke="url(#paint0_linear_1617_4767)" stroke-width="3"/>
<path d="M13.0283 11.5546C13.0283 12.1559 12.8083 12.6729 12.3683 13.1056C11.9283 13.5309 11.2939 13.7949 10.4653 13.8976V15.1296H9.36527V13.9306C8.8226 13.9012 8.3056 13.8059 7.81427 13.6446C7.32293 13.4832 6.92693 13.2852 6.62627 13.0506L7.23127 11.7086C7.50993 11.9139 7.83627 12.0862 8.21027 12.2256C8.58427 12.3649 8.96927 12.4529 9.36527 12.4896V10.6526C8.8446 10.5279 8.4046 10.3886 8.04527 10.2346C7.68593 10.0806 7.38527 9.8569 7.14327 9.56357C6.90127 9.2629 6.78027 8.8669 6.78027 8.37557C6.78027 7.7669 7.00027 7.24624 7.44027 6.81357C7.8876 6.37357 8.52927 6.1059 9.36527 6.01057V4.78957H10.4653V5.98857C11.3673 6.0619 12.1116 6.28557 12.6983 6.65957L12.1483 8.01257C11.5983 7.69724 11.0373 7.50657 10.4653 7.44057V9.31057C10.9786 9.4279 11.4113 9.56357 11.7633 9.71757C12.1226 9.86424 12.4233 10.0879 12.6653 10.3886C12.9073 10.6819 13.0283 11.0706 13.0283 11.5546ZM8.55127 8.28757C8.55127 8.4709 8.62093 8.62124 8.76027 8.73857C8.8996 8.8559 9.10127 8.9549 9.36527 9.03557V7.47357C9.0866 7.53957 8.88127 7.6459 8.74927 7.79257C8.61727 7.9319 8.55127 8.0969 8.55127 8.28757ZM10.4653 12.4456C10.7293 12.3869 10.9273 12.2916 11.0593 12.1596C11.1913 12.0276 11.2573 11.8699 11.2573 11.6866C11.2573 11.5032 11.1876 11.3529 11.0483 11.2356C10.9163 11.1182 10.7219 11.0156 10.4653 10.9276V12.4456Z" fill="url(#paint1_linear_1617_4767)"/>
<defs>
<linearGradient id="paint0_linear_1617_4767" x1="14.9649" y1="-7.0122" x2="-7.72463" y2="-0.22362" gradientUnits="userSpaceOnUse">
<stop stop-color="#FF6746"/>
<stop offset="1" stop-color="#FF0546"/>
</linearGradient>
<linearGradient id="paint1_linear_1617_4767" x1="11.4148" y1="-0.531314" x2="2.30618" y2="1.14576" gradientUnits="userSpaceOnUse">
<stop stop-color="#FF6746"/>
<stop offset="1" stop-color="#FF0546"/>
</linearGradient>
</defs>
</svg>
