<svg width="20" height="20" viewBox="0 0 20 20" fill="none" xmlns="http://www.w3.org/2000/svg">
<path d="M10.707 14.8457C13.9781 14.8457 16.6299 12.1939 16.6299 8.92284C16.6299 5.65174 13.9781 3 10.707 3C7.43592 3 4.78418 5.65174 4.78418 8.92284C4.78418 12.1939 7.43592 14.8457 10.707 14.8457Z" fill="#CFD7DE"/>
<path d="M10.7068 12.243C12.5405 12.243 14.027 10.7566 14.027 8.92291C14.027 7.08925 12.5405 5.60278 10.7068 5.60278C8.87319 5.60278 7.38672 7.08925 7.38672 8.92291C7.38672 10.7566 8.87319 12.243 10.7068 12.243Z" fill="white"/>
<path d="M16.6298 15.9133H4V18.9999H16.6298V15.9133Z" fill="#CFD7DE"/>
</svg>
