<?xml version="1.0" standalone="no"?>
<svg xmlns:xlink="http://www.w3.org/1999/xlink" id="wave" style="transform:rotate(0deg); transition: 0.3s" viewBox="0 0 1440 140" version="1.1" xmlns="http://www.w3.org/2000/svg"><defs><linearGradient id="sw-gradient-0" x1="0" x2="0" y1="1" y2="0"><stop stop-color="rgba(255, 255, 255, 1)" offset="0%"/><stop stop-color="rgba(255, 255, 255, 1)" offset="100%"/></linearGradient></defs><path style="transform:translate(0, 0px); opacity:1" fill="url(#sw-gradient-0)" d="M0,56L48,65.3C96,75,192,93,288,93.3C384,93,480,75,576,60.7C672,47,768,37,864,35C960,33,1056,37,1152,51.3C1248,65,1344,89,1440,81.7C1536,75,1632,37,1728,18.7C1824,0,1920,0,2016,18.7C2112,37,2208,75,2304,86.3C2400,98,2496,84,2592,81.7C2688,79,2784,89,2880,98C2976,107,3072,117,3168,109.7C3264,103,3360,79,3456,77C3552,75,3648,93,3744,105C3840,117,3936,121,4032,119C4128,117,4224,107,4320,105C4416,103,4512,107,4608,107.3C4704,107,4800,103,4896,86.3C4992,70,5088,42,5184,46.7C5280,51,5376,89,5472,98C5568,107,5664,89,5760,84C5856,79,5952,89,6048,84C6144,79,6240,61,6336,44.3C6432,28,6528,14,6624,28C6720,42,6816,84,6864,105L6912,126L6912,140L6864,140C6816,140,6720,140,6624,140C6528,140,6432,140,6336,140C6240,140,6144,140,6048,140C5952,140,5856,140,5760,140C5664,140,5568,140,5472,140C5376,140,5280,140,5184,140C5088,140,4992,140,4896,140C4800,140,4704,140,4608,140C4512,140,4416,140,4320,140C4224,140,4128,140,4032,140C3936,140,3840,140,3744,140C3648,140,3552,140,3456,140C3360,140,3264,140,3168,140C3072,140,2976,140,2880,140C2784,140,2688,140,2592,140C2496,140,2400,140,2304,140C2208,140,2112,140,2016,140C1920,140,1824,140,1728,140C1632,140,1536,140,1440,140C1344,140,1248,140,1152,140C1056,140,960,140,864,140C768,140,672,140,576,140C480,140,384,140,288,140C192,140,96,140,48,140L0,140Z"/></svg>